<svg width="96" height="9" viewBox="0  0 96 9"fill="none" xmlns="http://www.w3.org/2000/svg">
<path d="M3.55 0.09C4.57667 0.09 5.384 0.332667 5.972 0.818C6.56 1.294 6.854 1.96133 6.854 2.82C6.854 3.67867 6.55533 4.35067 5.958 4.836C5.37 5.312 4.56733 5.55 3.55 5.55H1.478V8H0.47V0.09H3.55ZM3.494 4.71C4.25 4.71 4.82867 4.54667 5.23 4.22C5.64067 3.89333 5.846 3.42667 5.846 2.82C5.846 2.21333 5.64533 1.74667 5.244 1.42C4.84267 1.09333 4.25933 0.93 3.494 0.93H1.478V4.71H3.494ZM9.11063 0.09H10.1186V3.562H14.9206V0.09H15.9286V8H14.9206V4.416H10.1186V8H9.11063V0.09ZM22.3163 8.084C21.523 8.084 20.7997 7.91133 20.1463 7.566C19.5023 7.21133 18.9937 6.726 18.6203 6.11C18.2563 5.494 18.0743 4.80333 18.0743 4.038C18.0743 3.282 18.2563 2.596 18.6203 1.98C18.9937 1.364 19.5023 0.878666 20.1463 0.523999C20.7997 0.169333 21.523 -0.00800037 22.3163 -0.00800037C23.119 -0.00800037 23.8423 0.169333 24.4863 0.523999C25.1303 0.869333 25.6343 1.35467 25.9983 1.98C26.3717 2.596 26.5583 3.282 26.5583 4.038C26.5583 4.80333 26.3717 5.494 25.9983 6.11C25.6343 6.726 25.1303 7.21133 24.4863 7.566C23.8423 7.91133 23.119 8.084 22.3163 8.084ZM22.3163 7.216C22.923 7.216 23.4737 7.08067 23.9683 6.81C24.463 6.53 24.8503 6.152 25.1303 5.676C25.4103 5.19067 25.5503 4.64933 25.5503 4.052C25.5503 3.44533 25.4103 2.904 25.1303 2.428C24.8503 1.94267 24.463 1.56467 23.9683 1.294C23.4737 1.014 22.923 0.874 22.3163 0.874C21.7097 0.874 21.159 1.014 20.6643 1.294C20.1697 1.56467 19.7823 1.94267 19.5023 2.428C19.2223 2.904 19.0823 3.44533 19.0823 4.052C19.0823 4.64933 19.2223 5.19067 19.5023 5.676C19.7823 6.152 20.1697 6.53 20.6643 6.81C21.159 7.08067 21.7097 7.216 22.3163 7.216ZM29.9377 0.93H27.1517V0.09H33.7317V0.93H30.9457V8H29.9377V0.93ZM38.5585 8.084C37.7652 8.084 37.0419 7.91133 36.3885 7.566C35.7445 7.21133 35.2359 6.726 34.8625 6.11C34.4985 5.494 34.3165 4.80333 34.3165 4.038C34.3165 3.282 34.4985 2.596 34.8625 1.98C35.2359 1.364 35.7445 0.878666 36.3885 0.523999C37.0419 0.169333 37.7652 -0.00800037 38.5585 -0.00800037C39.3612 -0.00800037 40.0845 0.169333 40.7285 0.523999C41.3725 0.869333 41.8765 1.35467 42.2405 1.98C42.6139 2.596 42.8005 3.282 42.8005 4.038C42.8005 4.80333 42.6139 5.494 42.2405 6.11C41.8765 6.726 41.3725 7.21133 40.7285 7.566C40.0845 7.91133 39.3612 8.084 38.5585 8.084ZM38.5585 7.216C39.1652 7.216 39.7159 7.08067 40.2105 6.81C40.7052 6.53 41.0925 6.152 41.3725 5.676C41.6525 5.19067 41.7925 4.64933 41.7925 4.052C41.7925 3.44533 41.6525 2.904 41.3725 2.428C41.0925 1.94267 40.7052 1.56467 40.2105 1.294C39.7159 1.014 39.1652 0.874 38.5585 0.874C37.9519 0.874 37.4012 1.014 36.9065 1.294C36.4119 1.56467 36.0245 1.94267 35.7445 2.428C35.4645 2.904 35.3245 3.44533 35.3245 4.052C35.3245 4.64933 35.4645 5.19067 35.7445 5.676C36.0245 6.152 36.4119 6.53 36.9065 6.81C37.4012 7.08067 37.9519 7.216 38.5585 7.216ZM50.4326 4.038H51.3986V7.076C51.0346 7.40267 50.5913 7.65467 50.0686 7.832C49.5553 8 49.0139 8.084 48.4446 8.084C47.6326 8.084 46.8999 7.91133 46.2466 7.566C45.5933 7.21133 45.0799 6.726 44.7066 6.11C44.3333 5.494 44.1466 4.80333 44.1466 4.038C44.1466 3.282 44.3286 2.596 44.6926 1.98C45.0659 1.364 45.5746 0.878666 46.2186 0.523999C46.8719 0.169333 47.5999 -0.00800037 48.4026 -0.00800037C49.7279 -0.00800037 50.7453 0.384 51.4546 1.168L50.8106 1.826C50.1759 1.19133 49.3779 0.874 48.4166 0.874C47.8006 0.874 47.2453 1.014 46.7506 1.294C46.2559 1.56467 45.8639 1.94267 45.5746 2.428C45.2946 2.904 45.1546 3.44067 45.1546 4.038C45.1546 4.63533 45.2946 5.17667 45.5746 5.662C45.8639 6.138 46.2559 6.516 46.7506 6.796C47.2546 7.06667 47.8239 7.202 48.4586 7.202C49.2239 7.202 49.8819 7.01533 50.4326 6.642V4.038ZM59.4954 8L57.7034 5.508C57.4608 5.52667 57.2788 5.536 57.1574 5.536H55.0854V8H54.0774V0.09H57.1574C58.1841 0.09 58.9914 0.332667 59.5794 0.818C60.1674 1.294 60.4614 1.96133 60.4614 2.82C60.4614 3.42667 60.3028 3.94467 59.9854 4.374C59.6774 4.80333 59.2341 5.116 58.6554 5.312L60.5874 8H59.4954ZM57.1014 4.71C57.8574 4.71 58.4361 4.54667 58.8374 4.22C59.2481 3.89333 59.4534 3.42667 59.4534 2.82C59.4534 2.21333 59.2528 1.74667 58.8514 1.42C58.4501 1.09333 57.8668 0.93 57.1014 0.93H55.0854V4.71H57.1014ZM67.7418 5.956H63.3038L62.3798 8H61.3718L65.0258 0.09H66.0198L69.6738 8H68.6658L67.7418 5.956ZM67.3778 5.144L65.5298 1.042L63.6678 5.144H67.3778ZM74.2609 0.09C75.2876 0.09 76.0949 0.332667 76.6829 0.818C77.2709 1.294 77.5649 1.96133 77.5649 2.82C77.5649 3.67867 77.2663 4.35067 76.6689 4.836C76.0809 5.312 75.2783 5.55 74.2609 5.55H72.1889V8H71.1809V0.09H74.2609ZM74.2049 4.71C74.9609 4.71 75.5396 4.54667 75.9409 4.22C76.3516 3.89333 76.5569 3.42667 76.5569 2.82C76.5569 2.21333 76.3563 1.74667 75.9549 1.42C75.5536 1.09333 74.9703 0.93 74.2049 0.93H72.1889V4.71H74.2049ZM79.8216 0.09H80.8296V3.562H85.6316V0.09H86.6396V8H85.6316V4.416H80.8296V8H79.8216V0.09ZM92.4953 5.424V8H91.5013V5.396L88.2253 0.09H89.3033L92.0193 4.458L94.7353 0.09H95.7713L92.4953 5.424Z" fill="#333333"/>
</svg>
